<?xml version="1.0" encoding="UTF-8"?>
<svg version="1.1" xmlns="http://www.w3.org/2000/svg" width="338" height="333">
<path d="M0 0 C9.2657628 8.48531807 17.28388643 17.36757763 24 28 C24.39026367 28.61568848 24.78052734 29.23137695 25.18261719 29.86572266 C43.42961107 59.19178578 50.08354367 96.08873963 42.97265625 129.9765625 C34.51172157 166.18271318 13.17287088 198.69172351 -18.64453125 218.61230469 C-52.767271 238.71529523 -90.49997523 243.57143461 -128.75 234.25 C-136.85582947 231.93781654 -144.42023268 228.64571403 -152 225 C-153.10085937 224.47664063 -154.20171875 223.95328125 -155.3359375 223.4140625 C-185.72218287 208.0333704 -210.31700328 179.41753512 -221.32373047 147.17382812 C-232.63659179 110.80930927 -230.58091606 72.38251475 -212.97949219 38.4050293 C-195.09445627 5.0319654 -166.04857292 -18.54316179 -129.96484375 -29.59765625 C-123.38113929 -31.50995129 -116.78241184 -32.96483336 -110 -34 C-109.16082031 -34.13019531 -108.32164062 -34.26039062 -107.45703125 -34.39453125 C-68.57726654 -39.2789238 -29.0365512 -25.84913862 0 0 Z M-146 39 C-147.38009156 42.53648462 -148.03992035 44.68063723 -147.5625 48.5 C-148 52 -148 52 -149.92578125 53.6015625 C-151.53184016 54.60054651 -153.16925713 55.55112526 -154.8359375 56.4453125 C-157.49577045 58.35616722 -157.83988635 60.00184619 -159 63 C-160.76953125 64.2578125 -160.76953125 64.2578125 -162.8125 65.125 C-163.52019531 65.44210938 -164.22789062 65.75921875 -164.95703125 66.0859375 C-165.63121094 66.38757813 -166.30539063 66.68921875 -167 67 C-168.67888441 67.97934924 -170.35178756 68.96986723 -172 70 C-170.49717938 74.05761567 -167.87914957 77.1097686 -164 79 C-160.29340099 79.41297733 -156.7124669 79.29726158 -153 79 C-152.77957031 79.91652344 -152.77957031 79.91652344 -152.5546875 80.8515625 C-151.72430629 84.23989961 -150.86776277 87.62108736 -150 91 C-149.78005371 91.85754883 -149.56010742 92.71509766 -149.33349609 93.59863281 C-148.58704995 96.48529175 -147.82617029 99.36785352 -147.0625 102.25 C-146.82192871 103.18408691 -146.58135742 104.11817383 -146.33349609 105.08056641 C-143.95377419 113.96623007 -141.20898416 120.38047 -134.375 126.625 C-128.51226067 131.98476974 -127.04669993 135.80975326 -126.5859375 143.6171875 C-126.50673678 145.70280644 -126.43666141 147.78878885 -126.375 149.875 C-126.33632812 150.94492188 -126.29765625 152.01484375 -126.2578125 153.1171875 C-126.16397548 155.74462408 -126.07828443 158.37206171 -126 161 C-126.804375 161.12375 -127.60875 161.2475 -128.4375 161.375 C-129.7059375 161.684375 -129.7059375 161.684375 -131 162 C-131.33 162.66 -131.66 163.32 -132 164 C-130.68 164 -129.36 164 -128 164 C-128.6875 165.875 -128.6875 165.875 -130 168 C-131.66666667 168.66666667 -133.33333333 169.33333333 -135 170 C-136.34410262 172.01735205 -136.34410262 172.01735205 -137 174 C-136.67 174.33 -136.34 174.66 -136 175 C-130.13066427 174.89880456 -127.03334096 173.82055686 -122.640625 169.9609375 C-117.8117691 164.18930497 -116.41857791 159.45563736 -115.9375 152.125 C-115.38006825 145.65852813 -114.46869242 140.05951777 -112 134 C-111.06800781 134.32613281 -110.13601562 134.65226562 -109.17578125 134.98828125 C-104.21056863 136.40210027 -99.31307778 136.25388444 -94.1875 136.1875 C-93.25357422 136.18685547 -92.31964844 136.18621094 -91.35742188 136.18554688 C-86.69354548 136.15641788 -82.34043083 135.89686172 -77.7421875 135.109375 C-74.95648886 134.80537518 -73.51085353 134.73215862 -71.01586914 136.0402832 C-69.13892989 137.59816568 -67.55269209 139.23586459 -65.9375 141.0625 C-65.37095703 141.63677734 -64.80441406 142.21105469 -64.22070312 142.80273438 C-60.86322191 146.36930424 -59.2545153 148.93283176 -59 154 C-62.62714759 156.00032624 -66.02541611 156.65731237 -70.07421875 157.33984375 C-70.70972656 157.55769531 -71.34523438 157.77554688 -72 158 C-72.495 159.485 -72.495 159.485 -73 161 C-65.71169869 162.82207533 -58.21202621 161.38163227 -51.671875 157.68359375 C-50.05747002 156.53185361 -48.51781332 155.27634302 -47 154 C-48.7344543 145.24610711 -54.98364836 137.2043348 -60 130 C-59.29875 130.81984375 -58.5975 131.6396875 -57.875 132.484375 C-49.43287171 142.16970878 -43.85541045 146.17267071 -30.72192383 147.23095703 C-26.45569009 147.61038458 -23.25910018 148.11694984 -20 151 C-19.51171875 153.69921875 -19.51171875 153.69921875 -19.6875 156.6875 C-19.73261719 157.68136719 -19.77773437 158.67523438 -19.82421875 159.69921875 C-19.91123047 160.83810547 -19.91123047 160.83810547 -20 162 C-20.99 162.33 -21.98 162.66 -23 163 C-24.20882096 165.00016466 -24.20882096 165.00016466 -25 167 C-20.88854671 167.40308366 -18.71993007 167.50477856 -15.28125 165.09375 C-12.08610514 160.76060834 -12.43402997 157.41678162 -12.6875 152.1875 C-12.71005859 151.30384766 -12.73261719 150.42019531 -12.75585938 149.50976562 C-12.81452572 147.3391109 -12.90420021 145.1693331 -13 143 C-13.63969727 142.74452393 -14.27939453 142.48904785 -14.93847656 142.22583008 C-19.89977311 140.21104389 -23.61695393 138.305695 -27 134 C-28.67745999 129.80635003 -29.20734698 126.24390822 -29.3125 121.75 C-29.85709461 113.65492425 -32.25128201 107.18689569 -38.3125 101.625 C-39.51522682 100.71399841 -40.744603 99.83693134 -42 99 C-42.54914063 98.63390625 -43.09828125 98.2678125 -43.6640625 97.890625 C-54.36369269 91.76308348 -68.63189237 90.08061412 -80.6875 89.75 C-93.76968261 89.12280204 -110.66391488 87.1125516 -120 77 C-124.55304673 70.85234654 -127.36578755 63.91282379 -130.25 56.875 C-130.69601563 55.81667969 -131.14203125 54.75835937 -131.6015625 53.66796875 C-133.64303089 48.73751328 -135.26275192 44.31229283 -136 39 C-139.39914975 40.13304992 -140.05254451 41.12518475 -142 44 C-142.66 42.35 -143.32 40.7 -144 39 C-144.66 39 -145.32 39 -146 39 Z M-42 147 C-40.32172475 153.1028191 -37.45435189 158.38202465 -33.125 163 C-30.05660094 164.4439525 -27.33701075 164.19251985 -24 164 C-23.04497842 162.27523089 -23.04497842 162.27523089 -23 160 C-24.6436814 158.31066078 -26.3142876 156.64740076 -28 155 C-29.22666041 152.70896111 -30.08934462 150.44439075 -31 148 C-34.63 147.67 -38.26 147.34 -42 147 Z " fill="#000000" transform="translate(260,73)"/>
</svg>
